<svg width="604" height="388" viewBox="0 0 604 388" fill="none" xmlns="http://www.w3.org/2000/svg">
<g clip-path="url(#clip0_16_255)">
<path d="M564.584 342.824H411.958C406.405 342.818 401.081 340.606 397.155 336.674C393.228 332.742 391.02 327.41 391.014 321.85V80.7528C391.02 75.192 393.228 69.8607 397.155 65.9286C401.081 61.9965 406.405 59.7847 411.958 59.7784H564.584C570.137 59.7847 575.46 61.9965 579.387 65.9286C583.313 69.8607 585.522 75.192 585.528 80.7528V321.85C585.522 327.41 583.313 332.742 579.387 336.674C575.46 340.606 570.137 342.818 564.584 342.824Z" fill="#E6E6E6"/>
<path d="M567.115 72.2941H411.67C409.932 72.2962 408.265 72.9887 407.036 74.2195C405.807 75.4504 405.116 77.1192 405.114 78.8599V323.1C405.116 324.841 405.808 326.509 407.037 327.74C408.266 328.971 409.932 329.664 411.67 329.666H567.115C568.853 329.664 570.52 328.972 571.749 327.741C572.978 326.51 573.669 324.841 573.671 323.1V78.8599C573.669 77.1192 572.978 75.4504 571.749 74.2195C570.52 72.9887 568.853 72.2962 567.115 72.2941Z" fill="white"/>
<path d="M415.688 59.7784C415.689 59.353 415.858 58.9452 416.158 58.6444C416.459 58.3436 416.866 58.1743 417.291 58.1738H428.186C428.611 58.1738 429.019 58.3429 429.319 58.6438C429.62 58.9447 429.788 59.3528 429.788 59.7784C429.788 60.2039 429.62 60.6121 429.319 60.913C429.019 61.2139 428.611 61.383 428.186 61.383H417.291C416.866 61.3824 416.459 61.2132 416.158 60.9124C415.858 60.6116 415.689 60.2038 415.688 59.7784Z" fill="#E6E6E6"/>
<path d="M433.634 59.7784C433.634 59.353 433.803 58.9452 434.104 58.6444C434.404 58.3436 434.811 58.1743 435.236 58.1738H446.131C446.556 58.1738 446.964 58.3429 447.264 58.6438C447.565 58.9447 447.734 59.3528 447.734 59.7784C447.734 60.2039 447.565 60.6121 447.264 60.913C446.964 61.2139 446.556 61.383 446.131 61.383H435.236C434.811 61.3825 434.404 61.2132 434.104 60.9124C433.803 60.6116 433.634 60.2038 433.634 59.7784Z" fill="#E6E6E6"/>
<path d="M541.306 59.7784C541.306 59.353 541.475 58.9452 541.775 58.6444C542.076 58.3436 542.483 58.1743 542.908 58.1738H553.803C554.228 58.1738 554.636 58.3429 554.936 58.6438C555.237 58.9447 555.406 59.3528 555.406 59.7784C555.406 60.2039 555.237 60.6121 554.936 60.913C554.636 61.2139 554.228 61.383 553.803 61.383H542.908C542.483 61.3825 542.076 61.2132 541.775 60.9124C541.475 60.6116 541.306 60.2038 541.306 59.7784Z" fill="#E6E6E6"/>
<path d="M510.933 324.634C510.933 326.322 510.901 328.004 510.824 329.666H411.67C409.932 329.664 408.266 328.971 407.037 327.74C405.808 326.509 405.116 324.841 405.114 323.1V200.165C434.641 204.942 461.506 220.091 480.896 242.899C500.285 265.706 510.934 294.681 510.933 324.634Z" fill="#F2F2F2"/>
<path d="M507.566 135.059H470.587C468.904 135.059 467.54 136.425 467.54 138.11V141.918C467.54 143.603 468.904 144.969 470.587 144.969H507.566C509.249 144.969 510.613 143.603 510.613 141.918V138.11C510.613 136.425 509.249 135.059 507.566 135.059Z" fill="#2F76DB"/>
<path d="M531.069 154.88H447.084C445.401 154.88 444.037 156.246 444.037 157.931V161.738C444.037 163.424 445.401 164.79 447.084 164.79H531.069C532.752 164.79 534.116 163.424 534.116 161.738V157.931C534.116 156.246 532.752 154.88 531.069 154.88Z" fill="#E6E6E6"/>
<path d="M531.069 174.7H447.084C445.401 174.7 444.037 176.066 444.037 177.751V181.559C444.037 183.244 445.401 184.61 447.084 184.61H531.069C532.752 184.61 534.116 183.244 534.116 181.559V177.751C534.116 176.066 532.752 174.7 531.069 174.7Z" fill="#E6E6E6"/>
<path d="M516.688 312.974C516.206 312.996 515.729 312.87 515.322 312.612C514.915 312.353 514.597 311.976 514.411 311.531C514.225 311.085 514.18 310.593 514.283 310.122C514.385 309.65 514.63 309.221 514.984 308.894L515.145 308.252C515.124 308.201 515.102 308.15 515.081 308.098C514.596 306.951 513.783 305.973 512.744 305.286C511.706 304.6 510.488 304.236 509.244 304.241C507.999 304.246 506.784 304.618 505.751 305.312C504.717 306.006 503.912 306.991 503.435 308.142C501.531 312.736 499.106 317.338 498.508 322.195C498.245 324.342 498.356 326.519 498.836 328.628C494.363 318.855 492.04 308.233 492.025 297.483C492.024 294.785 492.173 292.089 492.473 289.408C492.721 287.21 493.064 285.028 493.503 282.861C495.901 271.106 501.049 260.087 508.525 250.711C512.143 248.734 515.069 245.694 516.909 242C517.576 240.672 518.047 239.255 518.308 237.792C517.899 237.846 517.485 237.879 517.076 237.906C516.949 237.913 516.815 237.919 516.688 237.926L516.64 237.928C516.192 237.948 515.747 237.838 515.359 237.611C514.972 237.384 514.658 237.049 514.456 236.648C514.254 236.246 514.172 235.795 514.22 235.348C514.268 234.901 514.444 234.477 514.727 234.128C514.904 233.911 515.08 233.694 515.256 233.477C515.524 233.142 515.798 232.813 516.066 232.478C516.097 232.446 516.126 232.413 516.153 232.378C516.461 231.996 516.769 231.621 517.076 231.239C516.515 230.365 515.759 229.634 514.868 229.101C511.784 227.292 507.528 228.545 505.3 231.339C503.065 234.133 502.644 238.053 503.42 241.544C504.183 244.515 505.446 247.334 507.153 249.88C506.986 250.095 506.812 250.302 506.645 250.517C503.587 254.454 500.922 258.683 498.688 263.141C499.231 258.146 498.582 253.094 496.795 248.399C494.984 244.024 491.59 240.339 488.601 236.557C485.01 232.014 477.647 233.996 477.014 239.756C477.008 239.811 477.002 239.867 476.996 239.923C477.44 240.174 477.875 240.44 478.3 240.722C478.835 241.079 479.248 241.59 479.488 242.187C479.727 242.784 479.781 243.439 479.642 244.068C479.503 244.696 479.178 245.267 478.709 245.707C478.24 246.147 477.65 246.435 477.015 246.533L476.95 246.543C477.108 248.146 477.387 249.734 477.786 251.294C478.941 255.649 480.982 259.719 483.781 263.247C486.58 266.776 490.077 269.687 494.052 271.798C494.313 271.932 494.567 272.066 494.828 272.194C492.584 278.564 491.176 285.2 490.64 291.934C490.336 295.907 490.354 299.898 490.693 303.868L490.673 303.728C489.817 299.313 487.465 295.33 484.015 292.45C478.892 288.235 471.653 286.683 466.126 283.295C465.539 282.918 464.856 282.716 464.158 282.714C463.459 282.713 462.775 282.911 462.186 283.286C461.597 283.661 461.127 284.196 460.832 284.83C460.537 285.463 460.429 286.168 460.52 286.861C460.528 286.911 460.535 286.96 460.543 287.009C461.367 287.345 462.169 287.732 462.945 288.168C463.389 288.419 463.824 288.686 464.249 288.967C464.783 289.325 465.197 289.835 465.436 290.432C465.676 291.029 465.73 291.685 465.591 292.313C465.452 292.941 465.127 293.513 464.658 293.953C464.189 294.393 463.598 294.681 462.963 294.779L462.898 294.789C462.851 294.795 462.811 294.802 462.764 294.809C464.172 298.175 466.148 301.274 468.606 303.969C471.642 307.231 475.311 309.838 479.388 311.63C483.466 313.422 487.866 314.36 492.319 314.389H492.326C493.535 319.649 495.286 324.769 497.552 329.666H516.22C516.287 329.459 516.347 329.244 516.407 329.036C514.679 329.145 512.944 329.042 511.242 328.728C512.627 327.026 514.012 325.311 515.397 323.609C515.428 323.577 515.457 323.543 515.484 323.508C516.186 322.637 516.896 321.773 517.598 320.902L517.599 320.901C517.636 318.23 517.33 315.566 516.688 312.974ZM495.31 270.86L495.32 270.847L495.31 270.874V270.86ZM491.175 308.19L491.014 307.828C491.021 307.567 491.021 307.306 491.014 307.038C491.014 306.964 491.001 306.89 491.001 306.817C491.061 307.279 491.115 307.741 491.182 308.204L491.175 308.19Z" fill="#CCCCCC"/>
<path d="M559.345 93.8571H419.44C419.137 93.8504 418.849 93.7254 418.638 93.5086C418.426 93.2919 418.307 93.0008 418.307 92.6976C418.307 92.3944 418.426 92.1033 418.638 91.8866C418.849 91.6699 419.137 91.5448 419.44 91.5381H559.345C559.648 91.5448 559.936 91.6699 560.147 91.8866C560.359 92.1033 560.478 92.3944 560.478 92.6976C560.478 93.0008 560.359 93.2919 560.147 93.5086C559.936 93.7254 559.648 93.8504 559.345 93.8571Z" fill="#CACACA"/>
<path d="M426.904 88.1852C428.784 88.1852 430.307 86.6254 430.307 84.7012C430.307 82.7771 428.784 81.2173 426.904 81.2173C425.025 81.2173 423.501 82.7771 423.501 84.7012C423.501 86.6254 425.025 88.1852 426.904 88.1852Z" fill="#3F3D56"/>
<path d="M438.66 88.1852C440.54 88.1852 442.063 86.6254 442.063 84.7012C442.063 82.7771 440.54 81.2173 438.66 81.2173C436.781 81.2173 435.257 82.7771 435.257 84.7012C435.257 86.6254 436.781 88.1852 438.66 88.1852Z" fill="#3F3D56"/>
<path d="M450.417 88.1852C452.296 88.1852 453.82 86.6254 453.82 84.7012C453.82 82.7771 452.296 81.2173 450.417 81.2173C448.537 81.2173 447.014 82.7771 447.014 84.7012C447.014 86.6254 448.537 88.1852 450.417 88.1852Z" fill="#3F3D56"/>
<path d="M553.876 82.5632H546.261C546.11 82.5662 545.966 82.6284 545.86 82.7364C545.755 82.8443 545.695 82.9895 545.695 83.1407C545.695 83.2919 545.755 83.4371 545.86 83.5451C545.966 83.653 546.11 83.7152 546.261 83.7182H553.876C554.027 83.7152 554.171 83.653 554.277 83.5451C554.382 83.4371 554.442 83.2919 554.442 83.1407C554.442 82.9895 554.382 82.8443 554.277 82.7364C554.171 82.6284 554.027 82.5662 553.876 82.5632Z" fill="#3F3D56"/>
<path d="M553.876 84.731H546.261C546.11 84.7339 545.966 84.7961 545.86 84.9041C545.755 85.012 545.695 85.1572 545.695 85.3084C545.695 85.4596 545.755 85.6048 545.86 85.7128C545.966 85.8208 546.11 85.8829 546.261 85.8859H553.876C554.027 85.8829 554.171 85.8208 554.277 85.7128C554.382 85.6048 554.442 85.4596 554.442 85.3084C554.442 85.1572 554.382 85.012 554.277 84.9041C554.171 84.7961 554.027 84.7339 553.876 84.731Z" fill="#3F3D56"/>
<path d="M553.876 86.8958H546.261C546.11 86.8987 545.966 86.9609 545.86 87.0689C545.755 87.1768 545.695 87.322 545.695 87.4732C545.695 87.6244 545.755 87.7696 545.86 87.8776C545.966 87.9856 546.11 88.0477 546.261 88.0507H553.876C554.027 88.0477 554.171 87.9856 554.277 87.8776C554.382 87.7696 554.442 87.6244 554.442 87.4732C554.442 87.322 554.382 87.1768 554.277 87.0689C554.171 86.9609 554.027 86.8987 553.876 86.8958Z" fill="#3F3D56"/>
<path d="M326.882 200.257H245.768C244.621 200.259 243.521 200.717 242.711 201.53C241.9 202.344 241.446 203.446 241.447 204.596V332.915H331.214V204.596C331.214 204.026 331.102 203.461 330.885 202.935C330.667 202.408 330.348 201.93 329.946 201.527C329.543 201.124 329.066 200.804 328.54 200.586C328.014 200.369 327.451 200.257 326.882 200.257ZM286.598 273.166C284.061 273.154 281.632 272.14 279.838 270.344C278.044 268.548 277.032 266.115 277.02 263.574V248.774C277.022 246.231 278.032 243.794 279.828 241.997C281.624 240.2 284.059 239.19 286.598 239.19C289.137 239.19 291.572 240.2 293.368 241.997C295.164 243.794 296.174 246.231 296.176 248.774V263.574C296.164 266.115 295.151 268.548 293.358 270.344C291.564 272.14 289.134 273.154 286.598 273.166Z" fill="#E6E6E6"/>
<path d="M241.169 328.81V341.191C241.17 341.832 241.425 342.447 241.878 342.901C242.331 343.354 242.945 343.61 243.585 343.611H329.076C329.716 343.608 330.328 343.352 330.781 342.898C331.234 342.445 331.489 341.831 331.492 341.191V328.81L241.169 328.81Z" fill="#CCCCCC"/>
<path d="M461.198 0H114.47C111.491 0.00474597 108.636 1.19192 106.529 3.30137C104.423 5.41082 103.237 8.27049 103.233 11.2537V245.563C103.236 248.547 104.42 251.408 106.527 253.518C108.634 255.628 111.491 256.814 114.47 256.817H461.198C464.177 256.814 467.034 255.628 469.141 253.518C471.248 251.408 472.432 248.547 472.435 245.563V11.2537C472.431 8.27049 471.245 5.41082 469.139 3.30137C467.032 1.19192 464.177 0.00474411 461.198 0Z" fill="#E6E6E6"/>
<path d="M458.304 8.12842H117.367C115.772 8.13189 114.244 8.76881 113.117 9.89945C111.99 11.0301 111.357 12.5621 111.357 14.1594V242.661C111.36 244.257 111.994 245.786 113.121 246.914C114.247 248.042 115.774 248.677 117.367 248.68H458.304C459.897 248.677 461.424 248.042 462.55 246.914C463.677 245.786 464.311 244.257 464.313 242.661V14.1594C464.313 12.5621 463.68 11.0301 462.554 9.89945C461.427 8.76881 459.899 8.13189 458.304 8.12842Z" fill="white"/>
<path d="M464.313 14.1594V242.661C464.311 244.257 463.677 245.786 462.55 246.914C461.424 248.042 459.897 248.677 458.304 248.68H338.082C324.782 236.328 313.871 221.626 305.896 205.312C305.371 204.261 304.872 203.197 304.397 202.121C297.13 186.33 292.73 169.37 291.403 152.034C291.315 150.97 291.24 149.907 291.19 148.831C291.028 146.078 290.953 143.288 290.953 140.485C290.929 121.844 294.444 103.369 301.311 86.0433C301.723 84.9672 302.16 83.9037 302.61 82.8401C316.43 50.3238 341.401 23.8257 373.016 8.12842H458.304C459.899 8.13189 461.427 8.76881 462.554 9.89945C463.68 11.0301 464.313 12.5621 464.313 14.1594Z" fill="#2F76DB"/>
<path d="M441.165 39.6108H122.152C121.821 39.6038 121.505 39.4668 121.273 39.2293C121.041 38.9918 120.911 38.6727 120.911 38.3404C120.911 38.0081 121.041 37.6889 121.273 37.4515C121.505 37.214 121.821 37.077 122.152 37.0699H441.165C441.497 37.077 441.813 37.214 442.045 37.4515C442.277 37.6889 442.407 38.0081 442.407 38.3404C442.407 38.6727 442.277 38.9918 442.045 39.2293C441.813 39.4668 441.497 39.6038 441.165 39.6108Z" fill="#CACACA"/>
<path d="M143.868 30.5833C147.974 30.5833 151.303 27.1756 151.303 22.972C151.303 18.7683 147.974 15.3606 143.868 15.3606C139.762 15.3606 136.433 18.7683 136.433 22.972C136.433 27.1756 139.762 30.5833 143.868 30.5833Z" fill="#3F3D56"/>
<path d="M169.552 30.5833C173.658 30.5833 176.986 27.1756 176.986 22.972C176.986 18.7683 173.658 15.3606 169.552 15.3606C165.446 15.3606 162.117 18.7683 162.117 22.972C162.117 27.1756 165.446 30.5833 169.552 30.5833Z" fill="#3F3D56"/>
<path d="M195.235 30.5833C199.341 30.5833 202.67 27.1756 202.67 22.972C202.67 18.7683 199.341 15.3606 195.235 15.3606C191.129 15.3606 187.801 18.7683 187.801 22.972C187.801 27.1756 191.129 30.5833 195.235 30.5833Z" fill="#3F3D56"/>
<path d="M425.702 17.2472H407.457C407.096 17.2544 406.751 17.4033 406.498 17.6619C406.245 17.9206 406.103 18.2684 406.103 18.6306C406.103 18.9928 406.245 19.3406 406.498 19.5993C406.751 19.8579 407.096 20.0068 407.457 20.014H425.702C426.063 20.0068 426.408 19.8579 426.661 19.5993C426.914 19.3406 427.056 18.9928 427.056 18.6306C427.056 18.2684 426.914 17.9206 426.661 17.6619C426.408 17.4033 426.063 17.2544 425.702 17.2472Z" fill="#3F3D56"/>
<path d="M425.702 22.4401H407.457C407.096 22.4472 406.751 22.5961 406.498 22.8548C406.245 23.1135 406.103 23.4612 406.103 23.8235C406.103 24.1857 406.245 24.5335 406.498 24.7922C406.751 25.0508 407.096 25.1997 407.457 25.2069H425.702C426.063 25.1997 426.408 25.0508 426.661 24.7922C426.914 24.5335 427.056 24.1857 427.056 23.8235C427.056 23.4612 426.914 23.1135 426.661 22.8548C426.408 22.5961 426.063 22.4472 425.702 22.4401Z" fill="#3F3D56"/>
<path d="M425.702 27.6261H407.457C407.096 27.6333 406.751 27.7822 406.498 28.0408C406.245 28.2995 406.103 28.6473 406.103 29.0095C406.103 29.3717 406.245 29.7195 406.498 29.9782C406.751 30.2369 407.096 30.3858 407.457 30.3929H425.702C426.063 30.3858 426.408 30.2369 426.661 29.9782C426.914 29.7195 427.056 29.3717 427.056 29.0095C427.056 28.6473 426.914 28.2995 426.661 28.0408C426.408 27.7822 426.063 27.6333 425.702 27.6261Z" fill="#3F3D56"/>
<path d="M219.83 113.832H175.219C173.536 113.832 172.172 115.198 172.172 116.883V121.639C172.172 123.324 173.536 124.69 175.219 124.69H219.83C221.513 124.69 222.877 123.324 222.877 121.639V116.883C222.877 115.198 221.513 113.832 219.83 113.832Z" fill="#2F76DB"/>
<path d="M245.582 135.548H149.468C147.785 135.548 146.421 136.915 146.421 138.6V143.355C146.421 145.041 147.785 146.407 149.468 146.407H245.582C247.264 146.407 248.628 145.041 248.628 143.355V138.6C248.628 136.915 247.264 135.548 245.582 135.548Z" fill="#E6E6E6"/>
<path d="M245.582 157.265H149.468C147.785 157.265 146.421 158.631 146.421 160.316V165.072C146.421 166.757 147.785 168.123 149.468 168.123H245.582C247.264 168.123 248.628 166.757 248.628 165.072V160.316C248.628 158.631 247.264 157.265 245.582 157.265Z" fill="#E6E6E6"/>
<path d="M154.763 235.579C154.771 240.052 153.975 244.489 152.414 248.68H117.367C115.774 248.677 114.247 248.042 113.121 246.914C111.994 245.786 111.36 244.257 111.357 242.661V198.518C113.316 198.2 115.296 198.041 117.28 198.042C122.202 198.042 127.076 199.013 131.624 200.899C136.172 202.785 140.304 205.55 143.785 209.036C147.266 212.522 150.027 216.66 151.91 221.214C153.794 225.769 154.763 230.65 154.763 235.579Z" fill="#2F76DB"/>
<path opacity="0.2" d="M464.626 86.0434V82.8402H411.012V45.7158H407.826V82.8402H346.378V45.7158H343.192V82.8402H302.61C302.16 83.9037 301.723 84.9673 301.311 86.0434H343.192V148.831H291.19C291.24 149.907 291.315 150.97 291.402 152.034H343.192V202.121H304.397C304.872 203.197 305.371 204.261 305.896 205.312H343.192V247.416H346.378V205.312H407.826V247.416H411.012V205.312H464.626V202.121H411.012C411.012 195.544 412.306 189.031 414.819 182.954C417.333 176.877 421.017 171.355 425.661 166.704C430.306 162.053 435.819 158.364 441.887 155.847C447.955 153.329 454.459 152.034 461.027 152.034H464.626V148.831H411.012V86.0434H464.626ZM407.826 202.121H346.378V152.034H407.826V202.121ZM407.826 148.831H346.378V147.579C346.378 131.259 352.852 115.607 364.376 104.067C375.899 92.5266 391.529 86.0434 407.826 86.0434L407.826 148.831Z" fill="black"/>
<path d="M421.458 224.974C420.775 225.005 420.098 224.825 419.519 224.459C418.941 224.092 418.489 223.556 418.225 222.923C417.961 222.291 417.897 221.592 418.043 220.923C418.188 220.253 418.536 219.644 419.039 219.178C419.123 218.843 419.183 218.603 419.267 218.267C419.237 218.195 419.207 218.122 419.177 218.049C416.103 210.709 405.685 210.759 402.637 218.11C399.932 224.635 396.488 231.171 395.64 238.069C395.267 241.118 395.424 244.209 396.106 247.205C389.752 233.326 386.453 218.24 386.432 202.972C386.43 199.141 386.643 195.312 387.068 191.505C387.42 188.383 387.908 185.284 388.532 182.207C391.937 165.511 399.249 149.863 409.866 136.546C415.004 133.739 419.16 129.421 421.773 124.175C422.719 122.289 423.388 120.276 423.759 118.198C423.179 118.275 422.59 118.322 422.01 118.36C421.83 118.37 421.64 118.379 421.459 118.389L421.391 118.392C420.754 118.42 420.122 118.264 419.572 117.942C419.021 117.619 418.576 117.144 418.289 116.574C418.002 116.003 417.885 115.362 417.954 114.727C418.022 114.092 418.272 113.491 418.674 112.995C418.925 112.686 419.175 112.378 419.426 112.07C419.806 111.594 420.195 111.128 420.575 110.652C420.619 110.607 420.661 110.559 420.699 110.509C421.136 109.967 421.573 109.434 422.01 108.891C421.212 107.651 420.139 106.612 418.874 105.856C414.494 103.286 408.45 105.066 405.285 109.034C402.111 113.002 401.513 118.57 402.615 123.528C403.556 127.772 405.608 131.664 407.918 135.366C407.68 135.671 407.433 135.966 407.195 136.27C402.853 141.863 399.067 147.868 395.894 154.2C396.666 147.106 395.745 139.931 393.207 133.263C390.635 127.049 385.814 121.816 381.569 116.444C376.469 109.992 366.012 112.808 365.114 120.987C365.105 121.066 365.096 121.146 365.088 121.225C365.719 121.581 366.336 121.959 366.94 122.359C367.699 122.867 368.287 123.592 368.627 124.44C368.967 125.288 369.043 126.219 368.846 127.111C368.648 128.004 368.186 128.815 367.52 129.44C366.855 130.065 366.016 130.474 365.114 130.613L365.022 130.627C365.246 132.903 365.643 135.159 366.209 137.374C367.85 143.56 370.749 149.339 374.724 154.35C378.699 159.361 383.665 163.496 389.311 166.495C389.682 166.685 390.043 166.876 390.413 167.056C387.225 176.104 385.226 185.528 384.465 195.092C384.034 200.735 384.059 206.403 384.541 212.041L384.512 211.841C383.296 205.572 379.956 199.914 375.057 195.825C367.78 189.839 357.5 187.635 349.65 182.823C345.871 180.507 341.029 183.5 341.688 187.888C341.699 187.958 341.71 188.028 341.721 188.098C342.891 188.575 344.03 189.125 345.132 189.744C345.763 190.1 346.38 190.478 346.984 190.878C347.743 191.386 348.331 192.111 348.671 192.959C349.011 193.807 349.087 194.738 348.89 195.631C348.692 196.523 348.23 197.334 347.564 197.959C346.899 198.584 346.06 198.993 345.158 199.132L345.065 199.146C344.999 199.156 344.942 199.165 344.875 199.175C346.875 203.956 349.681 208.356 353.171 212.184C357.483 216.817 362.694 220.52 368.485 223.064C374.277 225.609 380.526 226.942 386.85 226.982H386.859C388.576 234.453 391.063 241.724 394.281 248.68H420.794C420.889 248.385 420.975 248.08 421.06 247.785C418.606 247.94 416.142 247.793 413.724 247.348C415.691 244.93 417.658 242.494 419.625 240.077C419.669 240.032 419.71 239.984 419.749 239.934C420.746 238.697 421.754 237.469 422.752 236.232L422.752 236.231C422.805 232.439 422.371 228.655 421.459 224.974L421.458 224.974ZM391.098 165.163L391.111 165.144L391.098 165.182V165.163ZM385.225 218.179L384.997 217.666C385.006 217.294 385.006 216.923 384.997 216.543C384.997 216.438 384.978 216.333 384.978 216.229C385.063 216.885 385.139 217.542 385.234 218.198L385.225 218.179Z" fill="#2F2E41"/>
<path d="M185.369 162.876V127.192C185.369 121.714 183.196 116.461 179.329 112.588C175.461 108.715 170.215 106.539 164.746 106.539H89.2526C83.783 106.539 78.5373 108.715 74.6697 112.588C70.8021 116.461 68.6293 121.714 68.6293 127.192V322.958C68.6293 328.435 70.8021 333.689 74.6697 337.562C78.5373 341.435 83.7829 343.611 89.2526 343.611H164.746C167.454 343.611 170.136 343.077 172.638 342.039C175.14 341.001 177.414 339.48 179.329 337.562C181.244 335.644 182.763 333.367 183.799 330.861C184.836 328.356 185.369 325.67 185.369 322.958V188.277C185.714 188.277 186.045 188.139 186.289 187.895C186.533 187.651 186.67 187.319 186.67 186.974V164.179C186.67 163.833 186.533 163.502 186.289 163.258C186.045 163.013 185.714 162.876 185.369 162.876Z" fill="#E6E6E6"/>
<path d="M180.98 127.334V322.817C180.981 326.877 179.381 330.774 176.529 333.66C173.677 336.547 169.803 338.189 165.749 338.232C165.693 338.238 165.637 338.24 165.58 338.239H89.7198C85.6357 338.238 81.719 336.613 78.8311 333.721C75.9431 330.829 74.3206 326.907 74.3202 322.817V127.334C74.3206 123.244 75.9431 119.321 78.8311 116.429C81.719 113.537 85.6357 111.912 89.7198 111.912H98.9259C98.4733 113.025 98.3009 114.232 98.4237 115.427C98.5464 116.623 98.9607 117.77 99.63 118.767C100.299 119.765 101.203 120.582 102.262 121.148C103.321 121.713 104.502 122.009 105.702 122.01H148.952C150.151 122.007 151.331 121.709 152.388 121.143C153.445 120.576 154.347 119.759 155.016 118.762C155.684 117.765 156.098 116.619 156.221 115.425C156.344 114.231 156.172 113.024 155.721 111.912H165.58C169.665 111.912 173.581 113.537 176.469 116.429C179.357 119.321 180.98 123.244 180.98 127.334Z" fill="white"/>
<path d="M165.939 332.205C165.939 334.23 165.875 336.239 165.749 338.232C165.693 338.238 165.637 338.24 165.58 338.239H89.7198C85.6357 338.238 81.719 336.613 78.8311 333.721C75.9431 330.829 74.3206 326.907 74.3202 322.817V235.701C99.0369 236.949 122.329 247.661 139.382 265.623C156.434 283.584 165.941 307.421 165.939 332.205Z" fill="#F2F2F2"/>
<path d="M69.0464 182.839C68.581 182.839 68.1348 182.653 67.8057 182.324C67.4766 181.994 67.2914 181.547 67.2909 181.081V169.126C67.2909 168.66 67.4759 168.213 67.8051 167.883C68.1343 167.553 68.5808 167.368 69.0464 167.368C69.512 167.368 69.9586 167.553 70.2878 167.883C70.617 168.213 70.802 168.66 70.802 169.126V181.081C70.8014 181.547 70.6163 181.994 70.2872 182.324C69.9581 182.653 69.5119 182.839 69.0464 182.839Z" fill="#E6E6E6"/>
<path d="M136.965 173.293H118.336C116.653 173.293 115.289 174.66 115.289 176.345V181.1C115.289 182.786 116.653 184.152 118.336 184.152H136.965C138.647 184.152 140.012 182.786 140.012 181.1V176.345C140.012 174.66 138.647 173.293 136.965 173.293Z" fill="#2F76DB"/>
<path d="M162.716 195.01H92.5843C90.9015 195.01 89.5374 196.376 89.5374 198.061V202.817C89.5374 204.502 90.9015 205.868 92.5843 205.868H162.716C164.399 205.868 165.763 204.502 165.763 202.817V198.061C165.763 196.376 164.399 195.01 162.716 195.01Z" fill="#E6E6E6"/>
<path d="M162.716 216.727H92.5843C90.9015 216.727 89.5374 218.093 89.5374 219.778V224.534C89.5374 226.219 90.9015 227.585 92.5843 227.585H162.716C164.399 227.585 165.763 226.219 165.763 224.534V219.778C165.763 218.093 164.399 216.727 162.716 216.727Z" fill="#E6E6E6"/>
<path d="M145.841 327.114C145.52 327.129 145.203 327.044 144.931 326.872C144.66 326.7 144.448 326.449 144.324 326.152C144.2 325.855 144.17 325.527 144.238 325.213C144.307 324.899 144.47 324.613 144.706 324.394L144.813 323.967C144.799 323.933 144.785 323.899 144.771 323.864C144.447 323.1 143.905 322.448 143.213 321.99C142.521 321.533 141.709 321.291 140.88 321.294C140.051 321.297 139.241 321.545 138.552 322.008C137.864 322.47 137.327 323.126 137.009 323.893C135.74 326.955 134.124 330.022 133.726 333.259C133.55 334.69 133.624 336.141 133.944 337.546C130.963 331.033 129.414 323.954 129.404 316.789C129.404 314.991 129.504 313.195 129.703 311.408C129.868 309.943 130.097 308.489 130.39 307.045C131.988 299.21 135.419 291.867 140.401 285.618C142.813 284.301 144.763 282.274 145.989 279.813C146.433 278.928 146.747 277.983 146.921 277.008C146.649 277.044 146.372 277.066 146.1 277.084C146.016 277.088 145.926 277.093 145.842 277.097L145.81 277.099C145.511 277.112 145.214 277.039 144.956 276.887C144.698 276.736 144.489 276.513 144.354 276.246C144.219 275.978 144.165 275.677 144.197 275.379C144.229 275.081 144.346 274.799 144.535 274.566C144.652 274.421 144.77 274.277 144.887 274.132C145.066 273.909 145.249 273.69 145.427 273.467C145.448 273.445 145.467 273.423 145.485 273.4C145.69 273.145 145.895 272.895 146.1 272.64C145.726 272.058 145.222 271.571 144.629 271.216C142.573 270.01 139.737 270.845 138.252 272.707C136.762 274.57 136.481 277.182 136.999 279.509C137.507 281.489 138.349 283.367 139.487 285.064C139.376 285.207 139.26 285.346 139.148 285.489C137.11 288.113 135.334 290.931 133.845 293.902C134.207 290.574 133.775 287.206 132.584 284.077C131.377 281.161 129.115 278.706 127.122 276.185C126.595 275.508 125.88 275.002 125.066 274.732C124.252 274.462 123.377 274.44 122.55 274.668C121.724 274.896 120.984 275.365 120.423 276.014C119.862 276.663 119.507 277.465 119.401 278.317C119.397 278.354 119.393 278.391 119.389 278.428C119.685 278.595 119.974 278.773 120.258 278.961C120.614 279.199 120.89 279.539 121.049 279.937C121.209 280.335 121.245 280.772 121.152 281.191C121.059 281.609 120.843 281.99 120.53 282.283C120.218 282.576 119.824 282.768 119.401 282.834L119.357 282.84C119.463 283.908 119.649 284.967 119.915 286.007C120.685 288.909 122.045 291.621 123.91 293.973C125.776 296.324 128.106 298.265 130.756 299.672C130.93 299.761 131.099 299.851 131.273 299.935C129.777 304.181 128.839 308.604 128.481 313.092C128.279 315.74 128.291 318.399 128.517 321.045L128.504 320.952C127.933 318.009 126.366 315.355 124.067 313.436C120.652 310.627 115.828 309.592 112.144 307.334C111.753 307.083 111.297 306.948 110.832 306.947C110.367 306.946 109.911 307.078 109.518 307.328C109.126 307.578 108.812 307.935 108.616 308.357C108.419 308.779 108.347 309.249 108.408 309.711L108.423 309.809C108.972 310.033 109.507 310.291 110.024 310.582C110.32 310.749 110.61 310.927 110.893 311.114C111.249 311.353 111.525 311.693 111.684 312.091C111.844 312.489 111.88 312.926 111.787 313.344C111.695 313.763 111.478 314.144 111.165 314.437C110.853 314.73 110.459 314.922 110.036 314.987L109.993 314.994C109.962 314.999 109.935 315.003 109.904 315.008C110.842 317.251 112.159 319.316 113.797 321.112C115.82 323.286 118.265 325.024 120.983 326.218C123.7 327.412 126.633 328.038 129.601 328.057H129.605C130.411 331.562 131.578 334.975 133.088 338.239H145.53C145.574 338.1 145.614 337.957 145.654 337.819C144.503 337.891 143.347 337.822 142.212 337.613C143.135 336.479 144.058 335.336 144.981 334.202C145.002 334.18 145.021 334.158 145.039 334.135C145.507 333.554 145.98 332.978 146.448 332.397L146.448 332.397C146.473 330.617 146.269 328.842 145.841 327.114ZM131.594 299.047L131.601 299.038L131.594 299.056V299.047ZM128.838 323.926L128.731 323.685C128.736 323.51 128.736 323.336 128.731 323.158C128.731 323.108 128.722 323.059 128.722 323.01C128.762 323.318 128.798 323.627 128.843 323.935L128.838 323.926Z" fill="#CCCCCC"/>
<path d="M68.6954 159.633C68.2299 159.632 67.7837 159.447 67.4546 159.117C67.1255 158.787 66.9404 158.341 66.9398 157.874V145.92C66.9398 145.453 67.1248 145.006 67.454 144.676C67.7832 144.347 68.2298 144.161 68.6954 144.161C69.161 144.161 69.6075 144.347 69.9367 144.676C70.2659 145.006 70.4509 145.453 70.4509 145.92V157.874C70.4504 158.341 70.2652 158.787 69.9361 159.117C69.607 159.447 69.1608 159.632 68.6954 159.633Z" fill="#E6E6E6"/>
<path d="M115.393 113.923C115.393 113.457 115.579 113.01 115.908 112.68C116.237 112.351 116.683 112.165 117.148 112.165H129.086C129.552 112.165 129.998 112.35 130.328 112.68C130.657 113.009 130.842 113.456 130.842 113.923C130.842 114.389 130.657 114.836 130.328 115.166C129.998 115.496 129.552 115.681 129.086 115.681H117.148C116.683 115.68 116.237 115.495 115.908 115.165C115.579 114.836 115.393 114.389 115.393 113.923Z" fill="white"/>
<path d="M69.0464 203.233C68.581 203.232 68.1348 203.047 67.8057 202.717C67.4766 202.388 67.2914 201.941 67.2909 201.475V189.52C67.2909 189.054 67.4759 188.606 67.8051 188.277C68.1343 187.947 68.5808 187.762 69.0464 187.762C69.512 187.762 69.9586 187.947 70.2878 188.277C70.617 188.606 70.802 189.054 70.802 189.52V201.475C70.8014 201.941 70.6163 202.388 70.2872 202.717C69.9581 203.047 69.5119 203.232 69.0464 203.233Z" fill="#E6E6E6"/>
<path d="M135.757 115.681C136.727 115.681 137.513 114.894 137.513 113.923C137.513 112.952 136.727 112.165 135.757 112.165C134.788 112.165 134.002 112.952 134.002 113.923C134.002 114.894 134.788 115.681 135.757 115.681Z" fill="white"/>
<path d="M603.164 343.606L0.836144 343.822C0.61481 343.822 0.402766 343.733 0.246486 343.576C0.0902063 343.419 0.00244141 343.207 0.00244141 342.985C0.00244141 342.763 0.0902063 342.551 0.246486 342.394C0.402766 342.237 0.61481 342.148 0.836144 342.148L603.164 341.932C603.386 341.932 603.598 342.02 603.755 342.177C603.912 342.334 604 342.547 604 342.769C604 342.991 603.912 343.204 603.755 343.361C603.598 343.518 603.386 343.606 603.164 343.606Z" fill="#CACACA"/>
<path d="M257.555 159.004L254.387 159.684C254.366 158.357 254.201 157.036 253.894 155.745C253.606 157.326 252.999 158.832 252.11 160.171L233.94 164.057L216.494 145.62C216.468 136.401 221.579 129.396 230.745 129.396C231.297 129.396 231.87 129.423 232.449 129.476C237.401 128.646 242.481 129.772 246.62 132.618C250.759 135.464 253.634 139.807 254.64 144.733C261.136 151.139 258.78 154.905 257.555 159.004Z" fill="#2F2E41"/>
<path d="M266.488 374.617H273.079L276.215 349.157L266.487 349.158L266.488 374.617Z" fill="#FFB6B6"/>
<path d="M264.854 371.361L275.273 370.738V375.209L285.179 382.06C285.668 382.398 286.037 382.885 286.231 383.447C286.425 384.01 286.434 384.621 286.257 385.189C286.08 385.758 285.726 386.254 285.247 386.607C284.768 386.96 284.189 387.15 283.594 387.15H271.19L269.052 382.728L268.217 387.15H263.54L264.854 371.361Z" fill="#2F2E41"/>
<path d="M189.27 367.433L195.003 370.69L210.276 350.096L201.815 345.289L189.27 367.433Z" fill="#FFB6B6"/>
<path d="M189.452 363.793L198.821 368.4L196.619 372.288L201.858 383.143C202.117 383.679 202.198 384.284 202.089 384.869C201.98 385.455 201.688 385.99 201.253 386.397C200.819 386.804 200.267 387.061 199.676 387.131C199.086 387.202 198.489 387.081 197.971 386.787L187.183 380.657L187.502 375.754L184.597 379.188L180.529 376.876L189.452 363.793Z" fill="#2F2E41"/>
<path d="M290.852 163.465C290.007 163.587 289.2 163.893 288.486 164.362C287.772 164.831 287.17 165.451 286.722 166.178C286.273 166.905 285.989 167.721 285.89 168.57C285.79 169.419 285.878 170.279 286.147 171.09L276.061 179.833L279.871 187.267L293.941 174.72C295.272 174.178 296.358 173.166 296.994 171.875C297.629 170.585 297.769 169.106 297.389 167.718C297.008 166.331 296.132 165.132 294.927 164.348C293.722 163.564 292.272 163.25 290.852 163.465Z" fill="#FFB6B6"/>
<path d="M280.695 193.528C277.33 198.631 269.79 203.559 258.599 207.928C257.982 208.176 257.32 208.292 256.656 208.271C255.991 208.249 255.338 208.089 254.738 207.802C250.515 205.877 247.809 198.722 247.554 198.028L239.375 186.978C239.23 186.817 235.405 182.47 235.843 178.196C235.941 177.301 236.232 176.437 236.695 175.665C237.159 174.893 237.784 174.23 238.527 173.722C244.719 169.126 258.595 185.09 260.396 187.213L269.452 181.687L276.051 178.738L281.378 172.247L288.879 179.927L282.133 190.674C281.773 191.681 281.29 192.64 280.695 193.528Z" fill="#2F2E41"/>
<path d="M257.172 213.106C257.172 213.106 276.552 244.02 273.041 247.536C269.53 251.052 264.066 251.976 264.066 251.976L251.974 236.285L257.172 213.106Z" fill="#2F2E41"/>
<path d="M240.037 170.885L249.171 177.072C253.416 179.948 256.609 184.132 258.266 188.99C259.922 193.847 259.952 199.113 258.35 203.989L255.779 211.816L240.037 170.885Z" fill="#2F2E41"/>
<path d="M223.885 255.272L222.664 259.531L218.497 310.896L197.679 349.749L207.615 356.856L236.004 319.898L247.232 283.201L264.865 364.437L278.114 363.49L268.912 250.857L251.453 219.153L223.885 255.272Z" fill="#2F2E41"/>
<path d="M238.483 172.44L251.196 182.845C253.986 185.128 255.995 188.227 256.943 191.708C257.374 193.289 257.578 194.923 257.551 196.561L257.172 219.154L268.828 250.349C268.828 250.349 237.228 262.304 233.014 251.756C228.801 241.207 238.483 172.44 238.483 172.44Z" fill="#2F76DB"/>
<path d="M242.285 257.231C226.5 257.231 222.652 257.35 222.403 257.3L222.153 257.249V247.741L225.992 230.659C225.544 225.356 224.493 218.363 224.588 212.375C224.932 190.733 223.87 169.592 223.87 169.592L232.225 161.869L236.02 164.343L243.061 171.393C251.245 191.563 257.739 210.552 257.78 211.772L258.294 232.769L256.188 241.207C246.658 247.944 255.365 257.231 242.285 257.231Z" fill="#2F2E41"/>
<path opacity="0.2" d="M227.411 188.446L225.491 200.442L238.483 205.808L227.411 188.446Z" fill="black"/>
<path d="M240.498 159.619C247.523 159.619 253.218 153.916 253.218 146.881C253.218 139.846 247.523 134.143 240.498 134.143C233.473 134.143 227.779 139.846 227.779 146.881C227.779 153.916 233.473 159.619 240.498 159.619Z" fill="#FFB6B6"/>
<path opacity="0.2" d="M219.185 211.512C222.571 215.438 227.162 218.125 232.239 219.153C237.316 220.181 242.589 219.49 247.231 217.189L250 215.817L219.185 211.512Z" fill="black"/>
<path d="M263.447 208.58C262.879 207.942 262.179 207.436 261.395 207.097C260.612 206.759 259.763 206.598 258.91 206.623C258.057 206.649 257.22 206.862 256.458 207.247C255.696 207.632 255.028 208.179 254.5 208.85L241.657 205.24L237.563 212.52L255.771 217.364C256.956 218.178 258.398 218.527 259.823 218.347C261.249 218.167 262.559 217.469 263.505 216.386C264.451 215.304 264.968 213.911 264.957 212.472C264.946 211.033 264.409 209.648 263.447 208.58Z" fill="#FFB6B6"/>
<path d="M232.799 216.66C226.693 216.66 218.432 213.075 208.624 206.131C208.078 205.752 207.616 205.263 207.267 204.696C206.919 204.128 206.693 203.495 206.602 202.835C205.878 198.245 210.349 192.04 210.787 191.445L215.487 178.521C215.541 178.311 217.055 172.719 220.857 170.73C221.658 170.319 222.538 170.086 223.437 170.047C224.336 170.009 225.232 170.166 226.065 170.507C233.307 173.148 227.652 193.542 226.876 196.217L236.471 200.739L242.564 204.629L250.909 205.503L248.643 216.003L235.97 216.289C234.933 216.543 233.868 216.668 232.799 216.66Z" fill="#2F2E41"/>
<path d="M255.751 138.501C254.733 139.827 251.225 141.001 247.058 141.947C247.065 141.86 247.065 141.774 247.065 141.687C247.044 140.36 246.879 139.039 246.573 137.748C246.284 139.329 245.677 140.835 244.789 142.174C244.722 142.274 244.656 142.374 244.582 142.474C241.008 143.18 237.228 143.727 234.266 144.093C236.302 151.439 244.11 157.465 243.265 161.93L220.388 166.61C220.529 164.754 220.38 162.887 219.949 161.077C219.511 163.466 218.354 165.664 216.634 167.376L214.69 167.776L214.111 164.917C209.093 152.845 216.088 140.487 227.55 134.095C229.593 131.027 232.766 128.894 236.376 128.163L239.231 127.576C241.032 127.207 242.888 127.197 244.693 127.546C246.498 127.896 248.217 128.598 249.751 129.612C251.285 130.627 252.604 131.934 253.634 133.459C254.663 134.984 255.383 136.697 255.751 138.501Z" fill="#2F2E41"/>
<path d="M310.399 369.431L310.738 361.814C314.264 359.926 318.198 358.929 322.196 358.909C316.693 363.415 317.381 372.101 313.65 378.16C312.471 380.041 310.886 381.632 309.01 382.816C307.134 384 305.017 384.746 302.814 384.998L298.208 387.822C297.577 384.294 297.716 380.671 298.617 377.202C299.518 373.733 301.159 370.501 303.427 367.729C304.715 366.186 306.192 364.812 307.823 363.639C308.926 366.551 310.399 369.431 310.399 369.431Z" fill="#F2F2F2"/>
<path d="M321.565 388H161.191C160.969 387.999 160.757 387.911 160.601 387.754C160.445 387.597 160.357 387.384 160.357 387.163C160.357 386.941 160.445 386.728 160.601 386.572C160.757 386.415 160.969 386.326 161.191 386.325H321.565C321.675 386.325 321.784 386.347 321.885 386.388C321.987 386.43 322.079 386.492 322.157 386.57C322.235 386.648 322.297 386.74 322.339 386.842C322.381 386.943 322.403 387.053 322.403 387.163C322.403 387.273 322.381 387.382 322.339 387.484C322.297 387.585 322.235 387.678 322.157 387.756C322.079 387.833 321.987 387.895 321.885 387.937C321.784 387.979 321.675 388 321.565 388Z" fill="#CACACA"/>
</g>
<defs>
<clipPath id="clip0_16_255">
<rect width="604" height="388" fill="white"/>
</clipPath>
</defs>
</svg>
