<svg width="50" height="51" viewBox="0 0 50 51" fill="none" xmlns="http://www.w3.org/2000/svg">
<g clip-path="url(#clip0_16_2562)">
<path d="M11.8164 25.1639C11.8164 15.3236 18.357 6.69705 27.6252 4.00203L29.3908 0.561792C27.9415 0.305542 26.4674 0.16394 25 0.16394C11.2686 0.16394 0 11.4325 0 25.1639C0 38.8954 11.2686 50.1639 25 50.1639C26.4689 50.1639 27.9449 50.0223 29.396 49.7654L29.0827 46.6143C19.0464 44.4306 11.8164 35.5147 11.8164 25.1639Z" fill="#7CAEF8"/>
<path fill-rule="evenodd" clip-rule="evenodd" d="M30.6793 3.31842L37.3047 3.54283C45.0682 7.90807 50 16.082 50 25.1639C50 26.6273 49.8485 28.111 49.5908 29.5535L49.5892 29.5525L49.5898 29.5585L49.5604 29.8222C49.2089 31.6971 48.5255 33.5721 47.7051 35.3884C47.7051 35.3885 47.7051 35.3885 47.7052 35.3885C47.6614 35.4904 47.6105 35.5996 47.5596 35.7088C47.5081 35.8193 47.4565 35.93 47.4123 36.0332V36.0623C47.3976 36.1063 47.3756 36.143 47.3536 36.1797C47.3316 36.2163 47.3096 36.2529 47.295 36.2967C46.9141 37.0585 46.4748 37.7909 46.0352 38.5233C45.7717 38.9335 45.4786 39.3436 45.1563 39.7537H45.1563C44.9512 40.076 44.7167 40.3983 44.4531 40.7206C44.0723 41.1892 43.6914 41.6288 43.2519 42.0683C41.5527 43.9432 39.5313 45.5254 37.334 46.7851H30.2734C25.0587 43.7967 21.0157 38.963 19.082 33.2793H19.0819H19.0234L18.7686 32.397C18.724 32.2535 18.6825 32.11 18.6442 31.9664L18.6426 31.9609C18.586 31.7685 18.5338 31.5761 18.4842 31.3836L18.2325 30.4668H18.2617C17.8808 28.709 17.6758 26.9511 17.6758 25.164V24.8418L17.6758 24.8418L17.6171 24.8711L17.7027 23.9876C17.7033 23.9804 17.704 23.9732 17.7047 23.9661L17.7051 23.9629C17.7147 23.8283 17.7211 23.6969 17.7275 23.5665C17.7406 23.2996 17.7535 23.0372 17.7928 22.7616C17.8055 22.6099 17.8236 22.4636 17.8448 22.3205L17.9101 21.7656L17.9394 21.7656C18.3991 18.2715 19.5803 14.958 21.4404 11.9803H21.2793L22.3587 10.6142C22.6046 10.2734 22.86 9.93767 23.1249 9.60729L23.5644 9.05065H23.6064C25.5496 6.73519 27.9653 4.80812 30.6793 3.31842Z" fill="#5374E9"/>
<path d="M34.3164 45.5547C28.0762 43.0058 23.2714 37.6151 21.4551 31.1405C21.338 30.7305 21.2208 30.291 21.1328 29.8807C20.7813 28.3281 20.6055 26.746 20.6055 25.1639C20.6055 24.4608 20.6348 23.7871 20.7226 23.0838C21.1034 19.0408 22.5683 15.2322 25 11.9803L25.4396 11.4237C27.7246 8.55271 30.8007 6.23806 34.3164 4.77322L37.3047 3.54285C36.4843 3.0449 35.6054 2.60535 34.6973 2.22449C34.6973 2.22449 34.0819 1.99021 33.9941 1.96091C32.5293 1.37498 31.1231 0.867065 29.6583 0.603491L29.3945 0.5448L29.1308 0.603491C17.3829 2.82986 8.88672 13.2107 8.88672 25.1639C8.88672 37.1172 17.3829 47.498 29.1308 49.7244L29.3945 49.7831L29.6583 49.7244C31.1231 49.4608 32.5293 48.953 33.9941 48.367C34.0819 48.3377 34.1992 48.2792 34.287 48.2499L34.7852 48.0448C35.6641 47.6932 36.5136 47.2537 37.334 46.785L34.3164 45.5547Z" fill="#6C8DFF"/>
</g>
<defs>
<clipPath id="clip0_16_2562">
<rect width="50" height="50" fill="white" transform="translate(0 0.16394)"/>
</clipPath>
</defs>
</svg>
