<svg width="50" height="51" viewBox="0 0 50 51" fill="none" xmlns="http://www.w3.org/2000/svg">
<g clip-path="url(#clip0_16_2550)">
<path d="M19.1406 12.6667L25 0.163952H40.9829L42.1502 12.6667H19.1406Z" fill="#F8C67C"/>
<path d="M7.84949 12.6667L9.01677 0.163952H24.9997V12.6667H7.84949Z" fill="#F8C67C"/>
<path d="M25 50.1639L19.1406 28.0936L25 6.02332H34.8576C36.6864 6.02332 38.4381 6.70154 39.79 7.93318C41.142 9.16482 41.9802 10.8459 42.1501 12.6667L45.6509 50.1639H25Z" fill="#F39321"/>
<path d="M10.2098 7.93318C11.5618 6.70154 13.3134 6.02332 15.1422 6.02332H24.9999V50.1639H4.34888L7.84966 12.6667C8.01968 10.8458 8.85786 9.16472 10.2098 7.93318V7.93318Z" fill="#F3A141"/>
</g>
<defs>
<clipPath id="clip0_16_2550">
<rect width="50" height="50" fill="white" transform="matrix(1 0 0 -1 0 50.1639)"/>
</clipPath>
</defs>
</svg>
