<svg width="134" height="81" viewBox="0 0 134 81" fill="none" xmlns="http://www.w3.org/2000/svg">
<path d="M-81 1L-69.4853 12.5147C-64.799 17.201 -57.201 17.201 -52.5147 12.5147L-49.4853 9.48527C-44.799 4.79898 -37.201 4.79899 -32.5147 9.48528L-29.4853 12.5147C-24.799 17.201 -17.201 17.201 -12.5147 12.5147L-9.48527 9.48527C-4.79898 4.79898 2.79899 4.79899 7.48528 9.48528L10.5147 12.5147C15.201 17.201 22.799 17.201 27.4853 12.5147L30.5147 9.48527C35.201 4.79898 42.799 4.79899 47.4853 9.48528L50.5147 12.5147C55.201 17.201 62.799 17.201 67.4853 12.5147L70.5147 9.48527C75.201 4.79898 82.799 4.79899 87.4853 9.48528L99 21" stroke="#F25F4C" stroke-width="2"/>
<path d="M-47 30.5L-35.4853 42.0147C-30.799 46.701 -23.201 46.701 -18.5147 42.0147L-15.4853 38.9853C-10.799 34.299 -3.20101 34.299 1.48528 38.9853L4.51473 42.0147C9.20102 46.701 16.799 46.701 21.4853 42.0147L24.5147 38.9853C29.201 34.299 36.799 34.299 41.4853 38.9853L44.5147 42.0147C49.201 46.701 56.799 46.701 61.4853 42.0147L64.5147 38.9853C69.201 34.299 76.799 34.299 81.4853 38.9853L84.5147 42.0147C89.201 46.701 96.799 46.701 101.485 42.0147L104.515 38.9853C109.201 34.299 116.799 34.299 121.485 38.9853L133 50.5" stroke="#F25F4C" stroke-width="2"/>
<path d="M-81 60L-69.4853 71.5147C-64.799 76.201 -57.201 76.201 -52.5147 71.5147L-49.4853 68.4853C-44.799 63.799 -37.201 63.799 -32.5147 68.4853L-29.4853 71.5147C-24.799 76.201 -17.201 76.201 -12.5147 71.5147L-9.48527 68.4853C-4.79898 63.799 2.79899 63.799 7.48528 68.4853L10.5147 71.5147C15.201 76.201 22.799 76.201 27.4853 71.5147L30.5147 68.4853C35.201 63.799 42.799 63.799 47.4853 68.4853L50.5147 71.5147C55.201 76.201 62.799 76.201 67.4853 71.5147L70.5147 68.4853C75.201 63.799 82.799 63.799 87.4853 68.4853L99 80" stroke="#F25F4C" stroke-width="2"/>
</svg>
